<svg width="32" height="33" viewBox="0 0 32 33" fill="none" xmlns="http://www.w3.org/2000/svg">
<g id="Group">
<path id="Path" fill-rule="evenodd" clip-rule="evenodd" d="M14.4747 18.0253C12.9147 16.4653 11.7387 14.7187 10.9573 12.9467C10.792 12.572 10.8893 12.1333 11.1787 11.844L12.2707 10.7533C13.1653 9.85867 13.1653 8.59333 12.384 7.812L10.8187 6.24667C9.77733 5.20533 8.08933 5.20533 7.048 6.24667L6.17867 7.116C5.19067 8.104 4.77867 9.52933 5.04533 10.9427C5.704 14.4267 7.728 18.2413 10.9933 21.5067C14.2587 24.772 18.0733 26.796 21.5573 27.4547C22.9707 27.7213 24.396 27.3093 25.384 26.3213L26.252 25.4533C27.2933 24.412 27.2933 22.724 26.252 21.6827L24.688 20.1187C23.9067 19.3373 22.64 19.3373 21.86 20.1187L20.656 21.324C20.3667 21.6133 19.928 21.7107 19.5533 21.5453C17.7813 20.7627 16.0347 19.5853 14.4747 18.0253Z" stroke="#8E26C0" stroke-width="1.5" stroke-linecap="round" stroke-linejoin="round"/>
</g>
</svg>
